# xmcd CD database file
#
# Track frame offsets:
#	150
#	13712
#	26828
#	41139
#	54494
#	67774
#	79003
#	94500
#	108719
#	121853
#	137330
#	151867
#	163914
#	175454
#	186012
#	199143
#	213789
#	227074
#	241049
#	254543
#
# Disc length: 3550 seconds
#
# Revision: 0
# Processed by: cddbd v1.5PL3 Copyright (c) Steve Scherf et al.
# Submitted via: CDex 1.51
#
DISCID=060ddc14
DTITLE=Nat King Cole - The Platinum Collection
DYEAR=1999
DGENRE=Jazz
TTITLE0=(Get Your Kicks On) Route 66
TTITLE1=(I Love You) For Sentimental Reasons
TTITLE2=Sweet Lorraine
TTITLE3=I'm Thru With Love
TTITLE4=I'm a Shy Guy
TTITLE5=Jumpin' At Capitol
TTITLE6=Embraceable You
TTITLE7=I Can't See For Lookin'
TTITLE8=Come In Out Of The Rain
TTITLE9=Don't Blame Me
TTITLE10=Meet Me At No Special Place
TTITLE11=Honeysuckle Rose
TTITLE12=Makin' Whoopee
TTITLE13=Sweet Georgia Brown
TTITLE14=I Tho't You Ought To Know
TTITLE15=The Frim Fram Sauce
TTITLE16=In The Cool Of The Evening
TTITLE17=What'll I Do?
TTITLE18=What Is This Thing Called Love?
TTITLE19=Nature Boy
EXTD=YEAR: 1999
EXTT0=
EXTT1=
EXTT2=
EXTT3=
EXTT4=
EXTT5=
EXTT6=
EXTT7=
EXTT8=
EXTT9=
EXTT10=
EXTT11=
EXTT12=
EXTT13=
EXTT14=
EXTT15=
EXTT16=
EXTT17=
EXTT18=
EXTT19=
PLAYORDER=
